# xmcd
#
# Track frame offsets:
# 150
# 20792
# 48317
# 69837
# 83079
# 97176
# 120076
# 139782
# 166466
# 178203
# 194428
# 213175
# 248671
# 269992
# 280526
# 297204
#
# Disc length: 4271 seconds
#
#
# Revision: 0
# Processed by: cddbd v1.5.2PL0 Copyright (c) Steve Scherf et al.
# Submitted via: Nero 7, 11, 10, 0 
#
DISCID=eb10ad10
DTITLE=Various Artist - European Blues Challenge 2011
DYEAR=2011
DGENRE=Blues
TTITLE0=Meena - I Shoot You Down
TTITLE1=Howlin' Bill - Six Feet Five
TTITLE2=Bluecerne - He Was A Friend Of Mine
TTITLE3=Richie Arndt and The Bluenatics - Little Brother Of Mine
TTITLE4=Tim Lothar - In It For The Ride
TTITLE5=The Suitcase Brothers - Motherless Children
TTITLE6=Micke and Lefty Feat. Chef - I'm A Guitar Man
TTITLE7=Awek - Hush Your Mouth
TTITLE8=Tomislav Goluban and LPFB - T-Train Kick
TTITLE9=One Man 100% Bluez - Different End Boogie
TTITLE10=Latvian Blues Band - Good Bye
TTITLE11=King Mo - Ain't Nobody's Business If I Do
TTITLE12=Vidar Busk and His True Believers - Stompin' Our Feet With Joy
TTITLE13=Boogie Boys - Hey You
TTITLE14=Emil and The Ecstatics - Bit By Bit
TTITLE15=24 Pesos - Live Is Life (Just To Sing The Blues)
EXTD=
EXTT0=Meena - I Shoot You Down
EXTT1=Howlin' Bill - Six Feet Five
EXTT2=Bluecerne - He Was A Friend Of Mine
EXTT3=Richie Arndt and The Bluenatics - Little Brother Of Mine
EXTT4=Tim Lothar - In It For The Ride
EXTT5=The Suitcase Brothers - Motherless Children
EXTT6=Micke and Lefty Feat. Chef - I'm A Guitar Man
EXTT7=Awek - Hush Your Mouth
EXTT8=Tomislav Goluban and LPFB - T-Train Kick
EXTT9=One Man 100% Bluez - Different End Boogie
EXTT10=Latvian Blues Band - Good Bye
EXTT11=King Mo - Ain't Nobody's Business If I Do
EXTT12=Vidar Busk and His True Believers - Stompin' Our Feet With Joy
EXTT13=Boogie Boys - Hey You
EXTT14=Emil and The Ecstatics - Bit By Bit
EXTT15=24 Pesos - Live Is Life (Just To Sing The Blues)
PLAYORDER=
